<mxfile host="app.diagrams.net" agent="Mozilla/5.0 (Windows NT 10.0; Win64; x64) AppleWebKit/537.36 (KHTML, like Gecko) Chrome/130.0.0.0 Safari/537.36" version="24.8.4">
  <diagram name="Page-1" id="QOC2EOlPs2nNr7eBbEqn">
    <mxGraphModel dx="1434" dy="746" grid="1" gridSize="10" guides="1" tooltips="1" connect="1" arrows="1" fold="1" page="1" pageScale="1" pageWidth="850" pageHeight="1100" math="0" shadow="0">
      <root>
        <mxCell id="0" />
        <mxCell id="1" parent="0" />
        <mxCell id="Z4tlBnn5uR2zgPHKZZcD-15" style="edgeStyle=orthogonalEdgeStyle;rounded=0;orthogonalLoop=1;jettySize=auto;html=1;exitX=0.5;exitY=1;exitDx=0;exitDy=0;entryX=0.5;entryY=0;entryDx=0;entryDy=0;" edge="1" parent="1" source="Z4tlBnn5uR2zgPHKZZcD-1" target="Z4tlBnn5uR2zgPHKZZcD-2">
          <mxGeometry relative="1" as="geometry" />
        </mxCell>
        <mxCell id="Z4tlBnn5uR2zgPHKZZcD-1" value="CAN message received" style="rounded=0;whiteSpace=wrap;html=1;" vertex="1" parent="1">
          <mxGeometry x="40" y="40" width="120" height="60" as="geometry" />
        </mxCell>
        <mxCell id="Z4tlBnn5uR2zgPHKZZcD-6" value="No" style="edgeStyle=orthogonalEdgeStyle;rounded=0;orthogonalLoop=1;jettySize=auto;html=1;exitX=0.5;exitY=1;exitDx=0;exitDy=0;entryX=0.5;entryY=0;entryDx=0;entryDy=0;" edge="1" parent="1" source="Z4tlBnn5uR2zgPHKZZcD-2" target="Z4tlBnn5uR2zgPHKZZcD-4">
          <mxGeometry relative="1" as="geometry" />
        </mxCell>
        <mxCell id="Z4tlBnn5uR2zgPHKZZcD-7" value="Yes" style="edgeStyle=orthogonalEdgeStyle;rounded=0;orthogonalLoop=1;jettySize=auto;html=1;exitX=1;exitY=0.5;exitDx=0;exitDy=0;" edge="1" parent="1" source="Z4tlBnn5uR2zgPHKZZcD-2" target="Z4tlBnn5uR2zgPHKZZcD-5">
          <mxGeometry relative="1" as="geometry" />
        </mxCell>
        <mxCell id="Z4tlBnn5uR2zgPHKZZcD-2" value="Does the message&lt;div&gt;say cameras should be recording?&lt;/div&gt;" style="rhombus;whiteSpace=wrap;html=1;" vertex="1" parent="1">
          <mxGeometry x="32.5" y="150" width="135" height="130" as="geometry" />
        </mxCell>
        <mxCell id="Z4tlBnn5uR2zgPHKZZcD-13" value="Yes" style="edgeStyle=orthogonalEdgeStyle;rounded=0;orthogonalLoop=1;jettySize=auto;html=1;exitX=0.5;exitY=1;exitDx=0;exitDy=0;entryX=0.5;entryY=0;entryDx=0;entryDy=0;" edge="1" parent="1" source="Z4tlBnn5uR2zgPHKZZcD-4" target="Z4tlBnn5uR2zgPHKZZcD-11">
          <mxGeometry relative="1" as="geometry" />
        </mxCell>
        <mxCell id="Z4tlBnn5uR2zgPHKZZcD-14" value="No" style="edgeStyle=orthogonalEdgeStyle;rounded=0;orthogonalLoop=1;jettySize=auto;html=1;exitX=1;exitY=0.5;exitDx=0;exitDy=0;entryX=0;entryY=0.5;entryDx=0;entryDy=0;" edge="1" parent="1" source="Z4tlBnn5uR2zgPHKZZcD-4" target="Z4tlBnn5uR2zgPHKZZcD-8">
          <mxGeometry relative="1" as="geometry" />
        </mxCell>
        <mxCell id="Z4tlBnn5uR2zgPHKZZcD-4" value="Is ESP32 in Record mode?" style="rhombus;whiteSpace=wrap;html=1;" vertex="1" parent="1">
          <mxGeometry x="51.5" y="320" width="97" height="100" as="geometry" />
        </mxCell>
        <mxCell id="Z4tlBnn5uR2zgPHKZZcD-9" value="Yes" style="edgeStyle=orthogonalEdgeStyle;rounded=0;orthogonalLoop=1;jettySize=auto;html=1;exitX=0.5;exitY=1;exitDx=0;exitDy=0;" edge="1" parent="1" source="Z4tlBnn5uR2zgPHKZZcD-5" target="Z4tlBnn5uR2zgPHKZZcD-8">
          <mxGeometry relative="1" as="geometry" />
        </mxCell>
        <mxCell id="Z4tlBnn5uR2zgPHKZZcD-12" value="No" style="edgeStyle=orthogonalEdgeStyle;rounded=0;orthogonalLoop=1;jettySize=auto;html=1;exitX=1;exitY=0.5;exitDx=0;exitDy=0;entryX=0;entryY=0.5;entryDx=0;entryDy=0;" edge="1" parent="1" source="Z4tlBnn5uR2zgPHKZZcD-5" target="Z4tlBnn5uR2zgPHKZZcD-10">
          <mxGeometry relative="1" as="geometry" />
        </mxCell>
        <mxCell id="Z4tlBnn5uR2zgPHKZZcD-5" value="Is ESP32 in Record mode?" style="rhombus;whiteSpace=wrap;html=1;" vertex="1" parent="1">
          <mxGeometry x="230" y="165" width="97" height="100" as="geometry" />
        </mxCell>
        <mxCell id="Z4tlBnn5uR2zgPHKZZcD-8" value="Exit" style="rounded=0;whiteSpace=wrap;html=1;" vertex="1" parent="1">
          <mxGeometry x="218.5" y="340" width="120" height="60" as="geometry" />
        </mxCell>
        <mxCell id="Z4tlBnn5uR2zgPHKZZcD-10" value="Start all cameras" style="rounded=0;whiteSpace=wrap;html=1;" vertex="1" parent="1">
          <mxGeometry x="380" y="185" width="120" height="60" as="geometry" />
        </mxCell>
        <mxCell id="Z4tlBnn5uR2zgPHKZZcD-11" value="Stop all cameras" style="rounded=0;whiteSpace=wrap;html=1;" vertex="1" parent="1">
          <mxGeometry x="40" y="470" width="120" height="60" as="geometry" />
        </mxCell>
      </root>
    </mxGraphModel>
  </diagram>
</mxfile>
